<?xml version="1.0" encoding="utf-8"?>
<!-- Generator: Adobe Illustrator 26.0.1, SVG Export Plug-In . SVG Version: 6.00 Build 0)  -->
<svg version="1.1" xmlns="http://www.w3.org/2000/svg" xmlns:xlink="http://www.w3.org/1999/xlink" x="0px" y="0px" width="96px"
	 height="96px" viewBox="0 0 96 96" style="enable-background:new 0 0 96 96;" xml:space="preserve">
<style type="text/css">
	.st0{display:none;}
	.st1{display:inline;}
	.st2{fill:#337CCF;}
	.st3{fill:#00406B;}
	.st4{fill:#79C4F2;}
	.st5{display:inline;fill:#00406B;}
	.st6{display:inline;fill:#337CCF;}
</style>
<g id="Background">
</g>
<g id="Icon">
	<g class="st0">
		<g class="st1">
			<path class="st2" d="M91.1,32.7H75.4c-1.7,0-3.1,1.4-3.1,3.1v29.8c0,1.7,1.4,3.1,3.1,3.1h15.7c1.7,0,3.1-1.4,3.1-3.1V35.9
				C94.2,34.1,92.8,32.7,91.1,32.7z M83.2,66.4c-0.9,0-1.6-0.7-1.6-1.6c0-0.9,0.7-1.6,1.6-1.6c0.9,0,1.6,0.7,1.6,1.6
				C84.8,65.7,84.1,66.4,83.2,66.4z M91.1,60.9H75.4V35.9h15.7V60.9z"/>
		</g>
		<g class="st1">
			<path class="st2" d="M55.9,81.3H40.1l-2.4-3.9H5.7v4.7c0,2.6,2.1,4.7,4.7,4.7h75.2c2.6,0,4.7-2.1,4.7-4.7v-4.7H58.4L55.9,81.3z"
				/>
		</g>
		<g class="st1">
			<rect x="36.2" y="60.1" class="st2" width="8.6" height="8.6"/>
		</g>
		<g class="st1">
			<rect x="54.3" y="60.1" class="st2" width="8.6" height="8.6"/>
		</g>
		<g class="st1">
			<rect x="18.2" y="60.1" class="st2" width="8.6" height="8.6"/>
		</g>
		<g class="st1">
			<polygon class="st2" points="62.1,26.1 58.2,23.3 58.2,28.8 			"/>
		</g>
		<g class="st1">
			<polygon class="st2" points="37.4,32.2 37.4,27.5 41.7,23.9 45.3,27.5 47.6,25.2 50,27.5 50,32.2 			"/>
		</g>
		<g class="st1">
			<path class="st2" d="M30,32.6c-1.4-0.1-2.7-1.1-3.2-2.4c-0.6-1.3-0.3-2.9,0.6-4l1.5-1.8l-1.5-1.5l-1.8,1.5
				C24.8,25,24,25.3,23,25.3c-0.5,0-1-0.1-1.5-0.3c-1.3-0.6-2.3-1.8-2.4-3.2l-0.2-2.3h-2.1l-0.2,2.3c-0.1,1.4-1.1,2.7-2.4,3.2
				c-0.5,0.2-1,0.3-1.5,0.3c-0.9,0-1.8-0.3-2.5-0.9l-1.8-1.5l-1.5,1.5l1.5,1.8c0.9,1.1,1.1,2.6,0.6,4c-0.6,1.3-1.8,2.3-3.2,2.4
				l-2.3,0.2V35l2.3,0.2c1.4,0.1,2.7,1.1,3.2,2.4c0.6,1.3,0.3,2.9-0.6,4l-1.5,1.8l1.5,1.5l1.8-1.5c0.7-0.6,1.6-0.9,2.5-0.9
				c0.5,0,1,0.1,1.5,0.3c1.3,0.6,2.3,1.8,2.4,3.2l0.2,2.3h2.1l0.2-2.3c0.1-1.4,1.1-2.7,2.4-3.2c0.5-0.2,1-0.3,1.5-0.3
				c0.9,0,1.8,0.3,2.5,0.9l1.8,1.5l1.5-1.5l-1.5-1.8c-0.9-1.1-1.1-2.6-0.6-4c0.6-1.3,1.8-2.3,3.2-2.4l2.3-0.2v-2.1L30,32.6z
				 M17.8,41.3c-4.1,0-7.4-3.3-7.4-7.4s3.3-7.4,7.4-7.4c4.1,0,7.4,3.3,7.4,7.4S22,41.3,17.8,41.3z"/>
		</g>
		<g class="st1">
			<path class="st3" d="M38.5,76.6H11.2c-0.4,0-0.8-0.4-0.8-0.8V49.2c0-0.4,0.4-0.8,0.8-0.8c0.4,0,0.8,0.4,0.8,0.8V75h26.5
				c0.4,0,0.8,0.4,0.8,0.8S38.9,76.6,38.5,76.6z"/>
		</g>
		<g class="st1">
			<path class="st3" d="M84.8,76.6H57.5c-0.4,0-0.8-0.4-0.8-0.8s0.4-0.8,0.8-0.8H84v-3.1c0-0.4,0.4-0.8,0.8-0.8
				c0.4,0,0.8,0.4,0.8,0.8v3.9C85.6,76.2,85.2,76.6,84.8,76.6z"/>
		</g>
		<g class="st1">
			<path class="st3" d="M84.8,30.4c-0.4,0-0.8-0.4-0.8-0.8v-3.9c0-1.3-1.1-2.3-2.3-2.3h-8.6c-0.4,0-0.8-0.4-0.8-0.8s0.4-0.8,0.8-0.8
				h8.6c2.2,0,3.9,1.8,3.9,3.9v3.9C85.6,30,85.2,30.4,84.8,30.4z"/>
		</g>
		<g class="st1">
			<path class="st3" d="M85.6,89.1H10.4c-3.9,0-7-3.2-7-7.1v-6.3c0-0.4,0.4-0.8,0.8-0.8h34.4c0.3,0,0.5,0.1,0.7,0.4l2.2,3.5h13.2
				l2.2-3.5c0.1-0.2,0.4-0.4,0.7-0.4h34.4c0.4,0,0.8,0.4,0.8,0.8v6.3C92.7,86,89.5,89.1,85.6,89.1z M4.9,76.6v5.5
				c0,3,2.5,5.5,5.5,5.5h75.2c3,0,5.5-2.5,5.5-5.5v-5.5H57.9l-2.2,3.5c-0.1,0.2-0.4,0.4-0.7,0.4H41c-0.3,0-0.5-0.1-0.7-0.4l-2.2-3.5
				H4.9z"/>
		</g>
		<g class="st1">
			<path class="st3" d="M77,80.5h-3.9c-0.4,0-0.8-0.4-0.8-0.8s0.4-0.8,0.8-0.8H77c0.4,0,0.8,0.4,0.8,0.8S77.4,80.5,77,80.5z"/>
		</g>
		<g class="st1">
			<path class="st3" d="M84.8,80.5h-3.9c-0.4,0-0.8-0.4-0.8-0.8s0.4-0.8,0.8-0.8h3.9c0.4,0,0.8,0.4,0.8,0.8S85.2,80.5,84.8,80.5z"/>
		</g>
		<g class="st1">
			<path class="st3" d="M91.1,69.5H75.4c-2.2,0-3.9-1.8-3.9-3.9V35.9c0-2.2,1.8-3.9,3.9-3.9h15.7c2.2,0,3.9,1.8,3.9,3.9v29.8
				C95,67.8,93.2,69.5,91.1,69.5z M75.4,33.5c-1.3,0-2.3,1.1-2.3,2.4v29.8c0,1.3,1.1,2.3,2.3,2.3h15.7c1.3,0,2.3-1.1,2.3-2.3V35.9
				c0-1.3-1.1-2.4-2.3-2.4H75.4z"/>
		</g>
		<g class="st1">
			<path class="st3" d="M91.1,61.7H75.4c-0.4,0-0.8-0.4-0.8-0.8V35.9c0-0.4,0.4-0.8,0.8-0.8h15.7c0.4,0,0.8,0.4,0.8,0.8v25.1
				C91.9,61.4,91.5,61.7,91.1,61.7z M76.2,60.1h14.1V36.6H76.2V60.1z"/>
		</g>
		<g class="st1">
			<path class="st3" d="M83.2,67.2c-1.3,0-2.3-1.1-2.3-2.3s1.1-2.4,2.3-2.4c1.3,0,2.3,1.1,2.3,2.4S84.5,67.2,83.2,67.2z M83.2,64.1
				c-0.4,0-0.8,0.4-0.8,0.8c0,0.4,0.4,0.8,0.8,0.8c0.4,0,0.8-0.4,0.8-0.8C84,64.4,83.7,64.1,83.2,64.1z"/>
		</g>
		<g class="st1">
			<path class="st3" d="M66,53.1H21.4c-0.4,0-0.8-0.4-0.8-0.8s0.4-0.8,0.8-0.8H66c1.3,0,2.3-1.1,2.3-2.4V10.8c0-1.3-1.1-2.3-2.3-2.3
				H21.4c-1.3,0-2.4,1.1-2.4,2.3v4.7c0,0.4-0.4,0.8-0.8,0.8c-0.4,0-0.8-0.4-0.8-0.8v-4.7c0-2.2,1.8-3.9,3.9-3.9H66
				c2.2,0,3.9,1.8,3.9,3.9v38.4C69.9,51.3,68.2,53.1,66,53.1z"/>
		</g>
		<g class="st1">
			<path class="st3" d="M69.2,16.3H18.2c-0.4,0-0.8-0.4-0.8-0.8c0-0.4,0.4-0.8,0.8-0.8h50.9c0.4,0,0.8,0.4,0.8,0.8
				C69.9,15.9,69.6,16.3,69.2,16.3z"/>
		</g>
		<g class="st1">
			<path class="st3" d="M51.9,13.9c-1.3,0-2.3-1.1-2.3-2.4s1.1-2.3,2.3-2.3c1.3,0,2.3,1.1,2.3,2.3S53.2,13.9,51.9,13.9z M51.9,10.8
				c-0.4,0-0.8,0.4-0.8,0.8s0.4,0.8,0.8,0.8c0.4,0,0.8-0.4,0.8-0.8S52.3,10.8,51.9,10.8z"/>
		</g>
		<g class="st1">
			<path class="st3" d="M58.2,13.9c-1.3,0-2.3-1.1-2.3-2.4s1.1-2.3,2.3-2.3c1.3,0,2.4,1.1,2.4,2.3S59.5,13.9,58.2,13.9z M58.2,10.8
				c-0.4,0-0.8,0.4-0.8,0.8s0.4,0.8,0.8,0.8c0.4,0,0.8-0.4,0.8-0.8S58.6,10.8,58.2,10.8z"/>
		</g>
		<g class="st1">
			<path class="st3" d="M64.4,13.9c-1.3,0-2.3-1.1-2.3-2.4s1.1-2.3,2.3-2.3c1.3,0,2.4,1.1,2.4,2.3S65.7,13.9,64.4,13.9z M64.4,10.8
				c-0.4,0-0.8,0.4-0.8,0.8s0.4,0.8,0.8,0.8s0.8-0.4,0.8-0.8S64.9,10.8,64.4,10.8z"/>
		</g>
		<g class="st1">
			<path class="st3" d="M66,33.5H53.5c-0.4,0-0.8-0.4-0.8-0.8V20.2c0-0.4,0.4-0.8,0.8-0.8H66c0.4,0,0.8,0.4,0.8,0.8v12.5
				C66.8,33.2,66.4,33.5,66,33.5z M54.3,31.9h11V21h-11V31.9z"/>
		</g>
		<g class="st1">
			<g>
				<path class="st3" d="M49.6,33.5H37c-0.4,0-0.8-0.4-0.8-0.8V20.2c0-0.4,0.4-0.8,0.8-0.8h12.5c0.4,0,0.8,0.4,0.8,0.8v12.5
					C50.3,33.2,50,33.5,49.6,33.5z M37.8,31.9h11V21h-11V31.9z"/>
			</g>
			<g>
				<path class="st3" d="M46.4,29.6c-0.2,0-0.4-0.1-0.6-0.2l-4.2-4.2l-4.2,3.5c-0.3,0.3-0.8,0.2-1.1-0.1c-0.3-0.3-0.2-0.8,0.1-1.1
					l4.7-3.9c0.3-0.3,0.8-0.2,1.1,0l4.7,4.7c0.3,0.3,0.3,0.8,0,1.1C46.8,29.5,46.6,29.6,46.4,29.6z"/>
			</g>
			<g>
				<path class="st3" d="M49.6,28.8c-0.2,0-0.4-0.1-0.6-0.2l-1.8-1.8l-1.4,1.4c-0.3,0.3-0.8,0.3-1.1,0c-0.3-0.3-0.3-0.8,0-1.1l2-2
					c0.3-0.3,0.8-0.3,1.1,0l2.4,2.4c0.3,0.3,0.3,0.8,0,1.1C50,28.7,49.8,28.8,49.6,28.8z"/>
			</g>
		</g>
		<g class="st1">
			<path class="st2" d="M58.2,29.6c-0.1,0-0.2,0-0.4-0.1c-0.3-0.1-0.4-0.4-0.4-0.7v-5.5c0-0.3,0.2-0.6,0.4-0.7
				c0.3-0.1,0.6-0.1,0.8,0.1l3.9,2.7c0.2,0.1,0.3,0.4,0.3,0.6c0,0.3-0.1,0.5-0.3,0.6l-3.9,2.7C58.5,29.5,58.3,29.6,58.2,29.6z
				 M59,24.8v2.5l1.8-1.2L59,24.8z"/>
		</g>
		<g class="st1">
			<path class="st3" d="M66,39H37c-0.4,0-0.8-0.4-0.8-0.8s0.4-0.8,0.8-0.8h29c0.4,0,0.8,0.4,0.8,0.8S66.4,39,66,39z"/>
		</g>
		<g class="st1">
			<path class="st3" d="M66,43.7H37c-0.4,0-0.8-0.4-0.8-0.8s0.4-0.8,0.8-0.8h29c0.4,0,0.8,0.4,0.8,0.8S66.4,43.7,66,43.7z"/>
		</g>
		<g class="st1">
			<path class="st3" d="M66,48.4H37c-0.4,0-0.8-0.4-0.8-0.8c0-0.4,0.4-0.8,0.8-0.8h29c0.4,0,0.8,0.4,0.8,0.8
				C66.8,48,66.4,48.4,66,48.4z"/>
		</g>
		<g class="st1">
			<g>
				<path class="st3" d="M26.9,69.5h-8.6c-0.4,0-0.8-0.4-0.8-0.8v-8.6c0-0.4,0.4-0.8,0.8-0.8h6.3c0.4,0,0.8,0.4,0.8,0.8
					c0,0.4-0.4,0.8-0.8,0.8H19v7h7v-3.1c0-0.4,0.4-0.8,0.8-0.8c0.4,0,0.8,0.4,0.8,0.8v3.9C27.6,69.2,27.3,69.5,26.9,69.5z"/>
			</g>
			<g>
				<path class="st3" d="M22.9,66.4c-0.2,0-0.4-0.1-0.6-0.2L20,63.8c-0.3-0.3-0.3-0.8,0-1.1c0.3-0.3,0.8-0.3,1.1,0l1.8,1.8l5.7-5.7
					c0.3-0.3,0.8-0.3,1.1,0c0.3,0.3,0.3,0.8,0,1.1l-6.3,6.3C23.3,66.3,23.1,66.4,22.9,66.4z"/>
			</g>
		</g>
		<g class="st1">
			<g>
				<path class="st3" d="M44.9,69.5h-8.6c-0.4,0-0.8-0.4-0.8-0.8v-8.6c0-0.4,0.4-0.8,0.8-0.8h6.3c0.4,0,0.8,0.4,0.8,0.8
					c0,0.4-0.4,0.8-0.8,0.8H37v7h7v-3.1c0-0.4,0.4-0.8,0.8-0.8c0.4,0,0.8,0.4,0.8,0.8v3.9C45.7,69.2,45.3,69.5,44.9,69.5z"/>
			</g>
			<g>
				<path class="st3" d="M41,66.4c-0.2,0-0.4-0.1-0.6-0.2L38,63.8c-0.3-0.3-0.3-0.8,0-1.1c0.3-0.3,0.8-0.3,1.1,0l1.8,1.8l5.7-5.7
					c0.3-0.3,0.8-0.3,1.1,0c0.3,0.3,0.3,0.8,0,1.1l-6.3,6.3C41.4,66.3,41.2,66.4,41,66.4z"/>
			</g>
		</g>
		<g class="st1">
			<g>
				<path class="st3" d="M62.9,69.5h-8.6c-0.4,0-0.8-0.4-0.8-0.8v-8.6c0-0.4,0.4-0.8,0.8-0.8h6.3c0.4,0,0.8,0.4,0.8,0.8
					c0,0.4-0.4,0.8-0.8,0.8H55v7h7v-3.1c0-0.4,0.4-0.8,0.8-0.8c0.4,0,0.8,0.4,0.8,0.8v3.9C63.7,69.2,63.3,69.5,62.9,69.5z"/>
			</g>
			<g>
				<path class="st3" d="M59,66.4c-0.2,0-0.4-0.1-0.6-0.2l-2.3-2.3c-0.3-0.3-0.3-0.8,0-1.1c0.3-0.3,0.8-0.3,1.1,0l1.8,1.8l5.7-5.7
					c0.3-0.3,0.8-0.3,1.1,0c0.3,0.3,0.3,0.8,0,1.1l-6.3,6.3C59.4,66.3,59.2,66.4,59,66.4z"/>
			</g>
		</g>
		<g class="st1">
			<path class="st3" d="M20.3,50.7h-5c-0.4,0-0.7-0.3-0.8-0.7l-0.4-3.7c-0.1-0.6-0.4-1.1-1-1.3c-0.6-0.2-1.2-0.1-1.6,0.2l-2.9,2.4
				c-0.3,0.3-0.8,0.2-1.1-0.1L4.2,44c-0.3-0.3-0.3-0.7-0.1-1.1l2.4-2.9c0.4-0.4,0.5-1,0.2-1.6c-0.2-0.6-0.7-0.9-1.3-1l-3.7-0.4
				c-0.4,0-0.7-0.4-0.7-0.8v-5c0-0.4,0.3-0.7,0.7-0.8l3.7-0.4c0.6-0.1,1.1-0.4,1.3-1c0.2-0.6,0.1-1.2-0.2-1.6l-2.4-2.9
				c-0.3-0.3-0.2-0.8,0.1-1.1l3.5-3.5c0.3-0.3,0.7-0.3,1.1-0.1l2.9,2.4c0.4,0.4,1,0.5,1.6,0.2c0.6-0.2,0.9-0.7,1-1.3l0.4-3.7
				c0-0.4,0.4-0.7,0.8-0.7h5c0.4,0,0.7,0.3,0.8,0.7l0.4,3.7c0.1,0.6,0.4,1.1,1,1.3c0.6,0.2,1.2,0.1,1.6-0.2l2.9-2.4
				c0.3-0.3,0.8-0.2,1.1,0.1l3.5,3.5c0.3,0.3,0.3,0.7,0.1,1.1l-2.4,2.9c-0.4,0.4-0.5,1-0.2,1.6c0.2,0.6,0.7,0.9,1.3,1l3.7,0.4
				c0.4,0,0.7,0.4,0.7,0.8v5c0,0.4-0.3,0.7-0.7,0.8l-3.7,0.4c-0.6,0.1-1.1,0.4-1.3,1c-0.2,0.6-0.1,1.2,0.2,1.6l2.4,2.9
				c0.3,0.3,0.2,0.8-0.1,1.1L28,47.6c-0.3,0.3-0.7,0.3-1.1,0.1L24,45.2c-0.4-0.4-1-0.5-1.6-0.2c-0.6,0.2-0.9,0.7-1,1.3L21.1,50
				C21.1,50.4,20.7,50.7,20.3,50.7z M16.1,49.2h3.6l0.3-3c0.1-1.2,0.8-2.1,1.9-2.6c1.1-0.5,2.3-0.3,3.2,0.5l2.3,1.9l2.5-2.5L28,41.1
				c-0.7-0.9-0.9-2.1-0.5-3.2c0.5-1.1,1.4-1.8,2.6-1.9l3-0.3v-3.6l-3-0.3c-1.2-0.1-2.1-0.8-2.6-1.9c-0.5-1.1-0.3-2.3,0.5-3.2
				l1.9-2.3l-2.5-2.5L25,23.8c-0.9,0.7-2.1,0.9-3.2,0.5c-1.1-0.5-1.8-1.4-1.9-2.6l-0.3-3h-3.6l-0.3,3c-0.1,1.2-0.8,2.1-1.9,2.6
				c-1.1,0.5-2.3,0.3-3.2-0.5l-2.3-1.9l-2.5,2.5l1.9,2.3c0.7,0.9,0.9,2.1,0.5,3.2c-0.5,1.1-1.4,1.8-2.6,1.9l-3,0.3v3.6l3,0.3
				c1.2,0.1,2.1,0.8,2.6,1.9c0.5,1.1,0.3,2.3-0.5,3.2l-1.9,2.3L8.3,46l2.3-1.9c0.9-0.7,2.1-0.9,3.2-0.5c1.1,0.5,1.8,1.4,1.9,2.6
				L16.1,49.2z M33.9,36.4L33.9,36.4L33.9,36.4z"/>
		</g>
		<g class="st1">
			<path class="st3" d="M17.8,42.1c-4.5,0-8.2-3.7-8.2-8.2s3.7-8.2,8.2-8.2c4.5,0,8.2,3.7,8.2,8.2S22.4,42.1,17.8,42.1z M17.8,27.2
				c-3.7,0-6.7,3-6.7,6.7s3,6.7,6.7,6.7s6.7-3,6.7-6.7S21.5,27.2,17.8,27.2z"/>
		</g>
		<g class="st1">
			<path class="st3" d="M17.8,39c-2.8,0-5.1-2.3-5.1-5.1s2.3-5.1,5.1-5.1c2.8,0,5.1,2.3,5.1,5.1S20.6,39,17.8,39z M17.8,30.4
				c-1.9,0-3.5,1.6-3.5,3.5c0,1.9,1.6,3.5,3.5,3.5c1.9,0,3.5-1.6,3.5-3.5C21.4,32,19.8,30.4,17.8,30.4z"/>
		</g>
		<g class="st1">
			<circle class="st4" cx="17.8" cy="33.9" r="2.7"/>
		</g>
	</g>
	<g class="st0">
		<path class="st5" d="M34.4,46.2c0-0.7,0.6-1.3,2.2-1.3c1,0,2.1,0.3,3.2,0.9l0.8-2c-1.1-0.7-2.6-1-4-1c-3.3,0-4.9,1.6-4.9,3.6
			c0,4.3,6.8,2.8,6.8,5c0,0.7-0.6,1.2-2.2,1.2c-1.4,0-2.9-0.5-3.8-1.2l-0.9,2c1,0.8,2.9,1.3,4.7,1.3c3.3,0,4.9-1.7,4.9-3.6
			C41.1,46.8,34.4,48.3,34.4,46.2z"/>
		<polygon class="st5" points="52,52.3 45.6,52.3 45.6,49.7 51,49.7 51,47.6 45.6,47.6 45.6,45 51.8,45 51.8,42.9 43,42.9 43,54.5 
			52,54.5 		"/>
		<path class="st5" d="M59.7,54.7c3.7,0,6.4-2.5,6.4-6c0-3.5-2.7-6-6.4-6c-3.7,0-6.4,2.6-6.4,6S56,54.7,59.7,54.7z M59.7,45
			c2.1,0,3.6,1.5,3.6,3.7c0,2.2-1.6,3.7-3.6,3.7s-3.6-1.5-3.6-3.7C56.1,46.5,57.6,45,59.7,45z"/>
		<path class="st6" d="M93,46.6h-5.5C86.8,25.9,70,9.2,49.2,8.6V3h-2.8v5.6C25.8,9.4,9.2,26,8.5,46.6H3v2.8h5.5
			c0.3,9,3.6,17.2,9,23.7L6.6,82.4c-1.1,1-1.4,2.5-0.5,3.4l5.1,5.1c0.8,0.8,2.4,0.6,3.4-0.5l9.4-11c6.3,4.8,14,7.8,22.4,8.1V93h2.8
			v-5.5C70,86.9,86.8,70.2,87.5,49.4H93V46.6z M49.2,84.7v-5.5h-2.8v5.5c-7.7-0.3-14.9-3.1-20.6-7.5l6.6-7.8
			c4.4,3.3,9.9,5.2,15.8,5.2c14.7,0,26.7-12,26.7-26.7c0-14.7-12-26.7-26.7-26.7c-14.7,0-26.7,12-26.7,26.7c0,6.3,2.2,12.1,5.9,16.7
			l-7.8,6.6c-4.9-6-8-13.6-8.3-21.9h5.5v-2.8h-5.5C12,27.6,27.4,12.1,46.4,11.3v5.4h2.8v-5.4C68.4,11.9,84,27.4,84.7,46.6h-5.5v2.8
			h5.5C84,68.6,68.4,84.1,49.2,84.7z M26.3,48c0-12.1,9.8-21.9,21.9-21.9S70.1,35.9,70.1,48c0,12.1-9.8,21.9-21.9,21.9
			S26.3,60.1,26.3,48z"/>
	</g>
	<g class="st0">
		<g class="st1">
			<rect x="11.1" y="20" class="st2" width="20.4" height="17.8"/>
		</g>
		<g class="st1">
			<path class="st2" d="M66.1,63.8c-2-0.2-3.7-1.5-4.5-3.4c-0.8-1.9-0.5-4,0.8-5.5l2.8-3.4l-3.4-3.4L58.4,51c-1,0.8-2.2,1.2-3.4,1.2
				c-0.7,0-1.4-0.1-2.1-0.4c-1.9-0.8-3.1-2.5-3.3-4.5l-0.4-4.4h-4.8l-0.4,4.4c-0.2,2-1.5,3.7-3.4,4.5c-0.7,0.3-1.4,0.4-2.1,0.4
				c-1.3,0-2.5-0.4-3.4-1.2l-3.4-2.8l-3.4,3.4L31,55c1.3,1.5,1.6,3.6,0.8,5.5c-0.8,1.9-2.5,3.1-4.5,3.3L23,64.3v4.8l4.4,0.4
				c2,0.2,3.7,1.5,4.5,3.4c0.8,1.9,0.5,4-0.8,5.5l-2.8,3.4l3.4,3.4l3.4-2.8c1-0.8,2.2-1.2,3.4-1.2c0.7,0,1.4,0.1,2.1,0.4
				c1.9,0.8,3.1,2.5,3.3,4.5l0.4,4.4h4.8l0.4-4.4c0.2-2,1.5-3.7,3.4-4.5c0.7-0.3,1.4-0.4,2.1-0.4c1.3,0,2.5,0.4,3.4,1.2l3.4,2.8
				l3.4-3.4l-2.8-3.4c-1.3-1.5-1.6-3.6-0.8-5.5c0.8-1.9,2.5-3.1,4.5-3.3l4.4-0.4v-4.8L66.1,63.8z M46.7,78.6
				c-6.6,0-11.9-5.3-11.9-11.9s5.3-11.9,11.9-11.9s11.9,5.3,11.9,11.9S53.3,78.6,46.7,78.6z"/>
		</g>
		<g class="st1">
			<path class="st3" d="M50.7,93h-7.9c-0.4,0-0.8-0.3-0.8-0.8l-0.6-5.9c-0.1-1.1-0.8-2-1.8-2.4c-1-0.4-2.1-0.3-2.9,0.4l-4.6,3.8
				c-0.3,0.3-0.8,0.3-1.1-0.1l-5.6-5.6c-0.3-0.3-0.3-0.8-0.1-1.1l3.8-4.6c0.7-0.8,0.8-1.9,0.4-2.9c-0.4-1-1.3-1.7-2.4-1.8l-5.9-0.6
				c-0.4,0-0.8-0.4-0.8-0.8v-7.9c0-0.4,0.3-0.8,0.8-0.8l5.9-0.6c1.1-0.1,2-0.8,2.4-1.8c0.4-1,0.3-2.1-0.4-2.9L25.3,52
				c-0.3-0.3-0.3-0.8,0.1-1.1l5.6-5.6c0.3-0.3,0.8-0.3,1.1-0.1l4.6,3.8c0.8,0.7,1.9,0.8,2.9,0.4c1-0.4,1.7-1.3,1.8-2.4l0.6-5.9
				c0-0.4,0.4-0.8,0.8-0.8h7.9c0.4,0,0.8,0.3,0.8,0.8l0.6,5.9c0.1,1.1,0.8,2,1.8,2.4c1,0.4,2.1,0.3,2.9-0.4l4.6-3.8
				c0.3-0.3,0.8-0.3,1.1,0.1l5.6,5.6c0.3,0.3,0.3,0.8,0.1,1.1l-3.8,4.6c-0.7,0.8-0.8,1.9-0.4,2.9c0.4,1,1.3,1.7,2.4,1.8l5.9,0.6
				c0.4,0,0.8,0.4,0.8,0.8v7.9c0,0.4-0.3,0.8-0.8,0.8l-5.9,0.6c-1.1,0.1-2,0.8-2.4,1.8c-0.4,1-0.3,2.1,0.4,2.9l3.8,4.6
				c0.3,0.3,0.3,0.8-0.1,1.1l-5.6,5.6c-0.3,0.3-0.8,0.3-1.1,0.1l-4.6-3.8c-0.8-0.7-1.9-0.8-2.9-0.4c-1,0.4-1.7,1.3-1.8,2.4l-0.6,5.9
				C51.5,92.7,51.1,93,50.7,93z M43.5,91.3h6.4l0.5-5.2c0.2-1.7,1.2-3.1,2.8-3.8c1.6-0.7,3.4-0.4,4.7,0.7l4,3.3l4.5-4.5l-3.3-4
				c-1.1-1.3-1.3-3.1-0.7-4.6c0.7-1.6,2.1-2.7,3.8-2.8l5.2-0.5v-6.4L66.2,63c-1.7-0.2-3.1-1.2-3.8-2.8c-0.7-1.6-0.4-3.4,0.7-4.7
				l3.3-4L61.9,47l-4,3.3c-1.3,1.1-3.1,1.3-4.6,0.7c-1.6-0.7-2.7-2.1-2.8-3.8l-0.5-5.2h-6.4L43,47.2c-0.2,1.7-1.2,3.1-2.8,3.8
				c-1.6,0.7-3.4,0.4-4.7-0.7l-4-3.3l-4.5,4.5l3.3,4c1.1,1.3,1.3,3.1,0.7,4.6c-0.7,1.6-2.1,2.7-3.8,2.8l-5.2,0.5v6.4l5.2,0.5
				c1.7,0.2,3.1,1.2,3.8,2.8c0.7,1.6,0.4,3.4-0.7,4.7l-3.3,4l4.5,4.5l4-3.3c1.3-1.1,3.1-1.3,4.6-0.7c1.6,0.7,2.7,2.1,2.8,3.8
				L43.5,91.3z M72.2,70.6L72.2,70.6L72.2,70.6z"/>
		</g>
		<g class="st1">
			<path class="st3" d="M46.7,79.4c-7,0-12.7-5.7-12.7-12.7s5.7-12.7,12.7-12.7c7,0,12.7,5.7,12.7,12.7S53.7,79.4,46.7,79.4z
				 M46.7,55.6c-6.1,0-11,5-11,11s5,11,11,11s11-5,11-11S52.8,55.6,46.7,55.6z"/>
		</g>
		<g class="st1">
			<path class="st3" d="M46.7,74.3c-4.2,0-7.6-3.4-7.6-7.6s3.4-7.6,7.6-7.6c4.2,0,7.6,3.4,7.6,7.6S50.9,74.3,46.7,74.3z M46.7,60.7
				c-3.3,0-5.9,2.7-5.9,5.9c0,3.3,2.7,5.9,5.9,5.9c3.3,0,5.9-2.7,5.9-5.9C52.7,63.4,50,60.7,46.7,60.7z"/>
		</g>
		<g class="st1">
			<circle class="st2" cx="46.7" cy="66.7" r="5.1"/>
		</g>
		<g class="st1">
			<rect x="54.4" y="23.4" class="st2" width="9.3" height="9.3"/>
		</g>
		<g class="st1">
			<rect x="39.1" y="23.4" class="st2" width="9.3" height="9.3"/>
		</g>
		<g class="st1">
			<g>
				<path class="st3" d="M48.4,33.6h-9.3c-0.5,0-0.8-0.4-0.8-0.8v-9.3c0-0.5,0.4-0.8,0.8-0.8h6.8c0.5,0,0.8,0.4,0.8,0.8
					c0,0.5-0.4,0.8-0.8,0.8h-5.9v7.6h7.6v-3.4c0-0.5,0.4-0.8,0.8-0.8c0.5,0,0.8,0.4,0.8,0.8v4.2C49.3,33.2,48.9,33.6,48.4,33.6z"/>
			</g>
			<g>
				<path class="st3" d="M44.2,30.2c-0.2,0-0.4-0.1-0.6-0.2L41,27.4c-0.3-0.3-0.3-0.9,0-1.2c0.3-0.3,0.9-0.3,1.2,0l1.9,1.9l6.2-6.2
					c0.3-0.3,0.9-0.3,1.2,0c0.3,0.3,0.3,0.9,0,1.2l-6.8,6.8C44.6,30.1,44.4,30.2,44.2,30.2z"/>
			</g>
		</g>
		<g class="st1">
			<g>
				<path class="st3" d="M63.7,33.6h-9.3c-0.5,0-0.8-0.4-0.8-0.8v-9.3c0-0.5,0.4-0.8,0.8-0.8h6.8c0.5,0,0.8,0.4,0.8,0.8
					c0,0.5-0.4,0.8-0.8,0.8h-5.9v7.6h7.6v-3.4c0-0.5,0.4-0.8,0.8-0.8c0.5,0,0.8,0.4,0.8,0.8v4.2C64.6,33.2,64.2,33.6,63.7,33.6z"/>
			</g>
			<g>
				<path class="st3" d="M59.5,30.2c-0.2,0-0.4-0.1-0.6-0.2l-2.5-2.5c-0.3-0.3-0.3-0.9,0-1.2c0.3-0.3,0.9-0.3,1.2,0l1.9,1.9l6.2-6.2
					c0.3-0.3,0.9-0.3,1.2,0c0.3,0.3,0.3,0.9,0,1.2l-6.8,6.8C59.9,30.1,59.7,30.2,59.5,30.2z"/>
			</g>
		</g>
		<g class="st1">
			<rect x="69.7" y="23.4" class="st2" width="9.3" height="9.3"/>
		</g>
		<g class="st1">
			<g>
				<path class="st3" d="M79,33.6h-9.3c-0.5,0-0.8-0.4-0.8-0.8v-9.3c0-0.5,0.4-0.8,0.8-0.8H79c0.5,0,0.8,0.4,0.8,0.8v9.3
					C79.8,33.2,79.5,33.6,79,33.6z M70.5,31.9h7.6v-7.6h-7.6V31.9z"/>
			</g>
		</g>
		<g class="st1">
			<g>
				<path class="st3" d="M17,34.4c-0.2,0-0.4-0.1-0.6-0.2l-4.2-4.2c-0.3-0.3-0.3-0.9,0-1.2l4.2-4.2c0.3-0.3,0.9-0.3,1.2,0
					c0.3,0.3,0.3,0.9,0,1.2L14,29.3l3.6,3.6c0.3,0.3,0.3,0.9,0,1.2C17.4,34.3,17.2,34.4,17,34.4z"/>
			</g>
			<g>
				<path class="st3" d="M25.5,34.4c-0.2,0-0.4-0.1-0.6-0.2c-0.3-0.3-0.3-0.9,0-1.2l3.6-3.6l-3.6-3.6c-0.3-0.3-0.3-0.9,0-1.2
					c0.3-0.3,0.9-0.3,1.2,0l4.2,4.2c0.3,0.3,0.3,0.9,0,1.2l-4.2,4.2C25.9,34.3,25.7,34.4,25.5,34.4z"/>
			</g>
			<g>
				<path class="st3" d="M19.6,37c-0.1,0-0.1,0-0.2,0c-0.5-0.1-0.7-0.6-0.6-1l3.4-14.4c0.1-0.5,0.6-0.7,1-0.6c0.5,0.1,0.7,0.6,0.6,1
					l-3.4,14.4C20.3,36.7,19.9,37,19.6,37z"/>
			</g>
		</g>
		<g class="st1">
			<path class="st2" d="M88.3,48.7c-1.2-0.1-2.2-0.9-2.6-2c-0.5-1.1-0.3-2.3,0.5-3.2l0.5-0.6l-0.1-0.1L86,43.4
				c-0.6,0.5-1.3,0.7-2,0.7c-0.4,0-0.8-0.1-1.1-0.2l-0.1,0c-1.1-0.4-1.8-1.5-2-2.6l-0.1-0.8h-0.1l-0.1,0.8c-0.1,1.2-0.9,2.2-2,2.6
				c-0.4,0.2-0.8,0.2-1.2,0.2c-0.7,0-1.5-0.3-2-0.7l-0.6-0.5l-0.1,0.1l0.5,0.6c0.7,0.9,0.9,2.1,0.5,3.3c-0.4,1.1-1.5,1.8-2.6,2
				l-0.8,0.1v0.1L73,49c1.2,0.1,2.2,0.9,2.6,2c0.5,1.1,0.3,2.3-0.5,3.2l-0.5,0.6l0.1,0.1l0.6-0.5c0.6-0.5,1.3-0.7,2-0.7
				c0.4,0,0.8,0.1,1.2,0.2c1.1,0.4,1.8,1.5,2,2.6l0.1,0.8h0.1l0.1-0.8c0.1-1.2,0.9-2.2,2-2.6c0.4-0.2,0.8-0.2,1.2-0.2
				c0.7,0,1.5,0.3,2,0.7l0.6,0.5l0.1-0.1l-0.5-0.6c-0.7-0.9-0.9-2.1-0.5-3.2l0-0.1c0.4-1.1,1.5-1.8,2.6-2l0.8-0.1v-0.1L88.3,48.7z
				 M80.7,52.2c-1.9,0-3.4-1.5-3.4-3.4c0-1.9,1.5-3.4,3.4-3.4c1.9,0,3.4,1.5,3.4,3.4C84.1,50.7,82.6,52.2,80.7,52.2z"/>
		</g>
		<g class="st1">
			<path class="st3" d="M82.3,59.9h-3.2c-0.4,0-0.8-0.3-0.8-0.8L78,56.7c0-0.2-0.2-0.4-0.4-0.5c-0.2-0.1-0.5-0.1-0.7,0.1l-1.8,1.5
				c-0.3,0.3-0.8,0.3-1.1-0.1l-2.2-2.2c-0.3-0.3-0.3-0.8-0.1-1.1l1.5-1.8c0.1-0.2,0.2-0.4,0.1-0.6c-0.1-0.2-0.3-0.4-0.5-0.4
				l-2.4-0.2c-0.4,0-0.8-0.4-0.8-0.8v-3.2c0-0.4,0.3-0.8,0.8-0.8l2.4-0.2c0.2,0,0.4-0.2,0.5-0.4c0.1-0.2,0.1-0.5-0.1-0.7l-1.5-1.8
				c-0.3-0.3-0.3-0.8,0.1-1.1l2.2-2.2c0.3-0.3,0.8-0.3,1.1-0.1l1.8,1.5c0.2,0.1,0.4,0.2,0.6,0.1c0.2-0.1,0.4-0.3,0.4-0.5l0.2-2.4
				c0-0.4,0.4-0.8,0.8-0.8h3.2c0.4,0,0.8,0.3,0.8,0.8l0.2,2.4c0,0.2,0.2,0.4,0.4,0.5c0.2,0.1,0.5,0.1,0.7-0.1l1.8-1.5
				c0.3-0.3,0.8-0.3,1.1,0.1l2.2,2.2c0.3,0.3,0.3,0.8,0.1,1.1l-1.5,1.8c-0.1,0.2-0.2,0.4-0.1,0.6c0.1,0.2,0.3,0.4,0.5,0.4l2.4,0.2
				c0.4,0,0.8,0.4,0.8,0.8v3.2c0,0.4-0.3,0.8-0.8,0.8l-2.4,0.2c-0.2,0-0.4,0.2-0.5,0.4c-0.1,0.2-0.1,0.5,0.1,0.7l1.5,1.8
				c0.3,0.3,0.3,0.8-0.1,1.1l-2.2,2.2c-0.3,0.3-0.8,0.3-1.1,0.1l-1.8-1.5c-0.2-0.1-0.4-0.2-0.6-0.1c-0.2,0.1-0.4,0.3-0.4,0.5
				l-0.2,2.4C83.1,59.6,82.7,59.9,82.3,59.9z M79.9,58.2h1.6l0.2-1.6c0.1-0.9,0.6-1.6,1.4-1.9c0.8-0.3,1.7-0.2,2.4,0.3l1.2,1
				l1.1-1.1l-1-1.2c-0.5-0.7-0.7-1.6-0.4-2.4c0.3-0.8,1.1-1.4,1.9-1.4l1.6-0.2V48l-1.6-0.2c-0.9-0.1-1.6-0.6-1.9-1.4
				c-0.3-0.8-0.2-1.7,0.3-2.4l1-1.2l-1.1-1.1l-1.2,1c-0.7,0.5-1.6,0.7-2.4,0.4c-0.8-0.3-1.4-1.1-1.4-1.9l-0.2-1.6h-1.6l-0.2,1.6
				c-0.1,0.9-0.6,1.6-1.4,1.9c-0.8,0.3-1.7,0.2-2.4-0.3l-1.2-1l-1.1,1.1l1,1.2c0.5,0.7,0.7,1.6,0.4,2.4c-0.3,0.8-1.1,1.4-1.9,1.4
				L71.3,48v1.6l1.6,0.2c0.9,0.1,1.6,0.6,1.9,1.4c0.3,0.8,0.2,1.7-0.3,2.4l-1,1.2l1.1,1.1l1.2-1c0.7-0.5,1.6-0.7,2.4-0.4
				c0.8,0.3,1.4,1.1,1.4,1.9L79.9,58.2z M90.9,50.4L90.9,50.4L90.9,50.4z"/>
		</g>
		<g class="st1">
			<path class="st3" d="M80.7,53.1c-2.3,0-4.2-1.9-4.2-4.2c0-2.3,1.9-4.2,4.2-4.2c2.3,0,4.2,1.9,4.2,4.2
				C84.9,51.2,83,53.1,80.7,53.1z M80.7,46.3c-1.4,0-2.5,1.1-2.5,2.5c0,1.4,1.1,2.5,2.5,2.5c1.4,0,2.5-1.1,2.5-2.5
				C83.2,47.4,82.1,46.3,80.7,46.3z"/>
		</g>
		<g class="st1">
			<path class="st3" d="M22.1,81.1H8.5c-2.3,0-4.2-1.9-4.2-4.2V7.2C4.3,4.9,6.2,3,8.5,3h76.4c2.3,0,4.2,1.9,4.2,4.2v30.6
				c0,0.5-0.4,0.8-0.8,0.8c-0.5,0-0.8-0.4-0.8-0.8V7.2c0-1.4-1.1-2.5-2.5-2.5H8.5C7.1,4.7,6,5.8,6,7.2v69.6c0,1.4,1.1,2.5,2.5,2.5
				h13.6c0.5,0,0.8,0.4,0.8,0.8S22.6,81.1,22.1,81.1z"/>
		</g>
		<g class="st1">
			<path class="st3" d="M84.9,81.1H71.3c-0.5,0-0.8-0.4-0.8-0.8s0.4-0.8,0.8-0.8h13.6c1.4,0,2.5-1.1,2.5-2.5v-17
				c0-0.5,0.4-0.8,0.8-0.8c0.5,0,0.8,0.4,0.8,0.8v17C89.2,79.2,87.3,81.1,84.9,81.1z"/>
		</g>
		<g class="st1">
			<g>
				<path class="st3" d="M69.7,11.5c-1.4,0-2.5-1.1-2.5-2.5c0-1.4,1.1-2.5,2.5-2.5c1.4,0,2.5,1.1,2.5,2.5
					C72.2,10.3,71.1,11.5,69.7,11.5z M69.7,8.1c-0.5,0-0.8,0.4-0.8,0.8c0,0.5,0.4,0.8,0.8,0.8c0.5,0,0.8-0.4,0.8-0.8
					C70.5,8.5,70.1,8.1,69.7,8.1z"/>
			</g>
			<g>
				<path class="st3" d="M76.4,11.5c-1.4,0-2.5-1.1-2.5-2.5c0-1.4,1.1-2.5,2.5-2.5c1.4,0,2.5,1.1,2.5,2.5
					C79,10.3,77.8,11.5,76.4,11.5z M76.4,8.1c-0.5,0-0.8,0.4-0.8,0.8c0,0.5,0.4,0.8,0.8,0.8c0.5,0,0.8-0.4,0.8-0.8
					C77.3,8.5,76.9,8.1,76.4,8.1z"/>
			</g>
			<g>
				<path class="st3" d="M83.2,11.5c-1.4,0-2.5-1.1-2.5-2.5c0-1.4,1.1-2.5,2.5-2.5c1.4,0,2.5,1.1,2.5,2.5
					C85.8,10.3,84.6,11.5,83.2,11.5z M83.2,8.1c-0.5,0-0.8,0.4-0.8,0.8c0,0.5,0.4,0.8,0.8,0.8c0.5,0,0.8-0.4,0.8-0.8
					C84.1,8.5,83.7,8.1,83.2,8.1z"/>
			</g>
		</g>
		<g class="st1">
			<path class="st3" d="M88.3,14.9H5.1c-0.5,0-0.8-0.4-0.8-0.8c0-0.5,0.4-0.8,0.8-0.8h83.2c0.5,0,0.8,0.4,0.8,0.8
				C89.2,14.5,88.8,14.9,88.3,14.9z"/>
		</g>
		<g class="st1">
			<path class="st3" d="M33.1,40.4H9.4c-0.5,0-0.8-0.4-0.8-0.8V18.3c0-0.5,0.4-0.8,0.8-0.8h23.8c0.5,0,0.8,0.4,0.8,0.8v21.2
				C34,40,33.6,40.4,33.1,40.4z M10.2,38.7h22.1V19.1H10.2V38.7z"/>
		</g>
		<g class="st1">
			<circle class="st2" cx="80.7" cy="48.8" r="1.7"/>
		</g>
	</g>
	<g class="st0">
		<g class="st1">
			<path class="st3" d="M60,15.3c0,2-0.5,4.1-1.6,6L34.5,62.6C31.2,68.3,23.8,70.3,18,67c-5.7-3.3-7.7-10.7-4.4-16.5L37.5,9.2
				C40.8,3.5,48.2,1.5,54,4.8C57.8,7,60,11.1,60,15.3z"/>
			<path class="st2" d="M77.9,66.8c-5.7,3.3-13.2,1.3-16.5-4.4L37.6,21.1C34.3,15.3,36.3,7.9,42,4.6C43.9,3.5,46,3,48,3
				c4.2,0,8.3,2.2,10.5,6l23.9,41.3C85.7,56.1,83.7,63.5,77.9,66.8z"/>
			<path class="st2" d="M36.5,56.4c0,6.8-5.5,12.2-12.2,12.2c-6.8,0-12.2-5.5-12.2-12.2s5.5-12.2,12.2-12.2
				C31,44.1,36.5,49.6,36.5,56.4z"/>
		</g>
		<g class="st1">
			<g>
				<path class="st2" d="M83.7,88.6c-0.5,0.7-1.5,1-2.7,0.9c-0.9-0.1-1.6-0.6-2-1.4c-0.2-0.3-0.1-0.4,0.3-0.5
					c0.2-0.1,0.4-0.2,0.4-0.3c0-0.1,0.1,0,0.2,0.1c0.8,1,1,1,1.8,1c0.5,0,0.6-0.1,0.8-0.4c0.5-0.6,0.1-1-1.3-1.4
					c-1.6-0.4-2.2-1-2.2-1.9c0-0.8,0.3-1.2,1-1.5c0.6-0.3,0.7-0.3,1.5-0.3c0.8,0,0.9,0,1.4,0.3c0.5,0.3,1.1,1,1.1,1.2
					c0,0.1-0.1,0.1-0.1,0.1c0,0-0.3,0-0.5,0.1c-0.3,0.1-0.5,0.2-0.5,0.1c-0.1-0.2-0.4-0.5-0.7-0.6c-0.4-0.2-1.2-0.1-1.5,0.1
					c-0.2,0.1-0.3,0.3-0.3,0.5c0,0.4,0.3,0.6,1.4,0.9c1.4,0.4,1.8,0.6,2.1,1.2C84.1,87.3,84,88.1,83.7,88.6z"/>
				<path class="st2" d="M77.9,80.2c0-0.1-0.3-0.1-0.7-0.1l-0.6,0l0,1.8l0,1.8l-0.2-0.2c-0.5-0.5-1-0.7-1.8-0.7
					c-0.9,0-1.4,0.2-2.1,0.9c-0.6,0.6-0.9,1.3-0.9,2.5c0,0.7,0,0.9,0.2,1.4c0.5,1,1.3,1.7,2.2,1.8c0.9,0.1,1.7-0.1,2.3-0.6l0.3-0.3
					l0,0.4l0,0.4l0.6,0h0.6l0-4.5C77.9,82.3,77.9,80.3,77.9,80.2z M76.4,87.3c-0.2,0.3-0.4,0.6-0.6,0.7c-0.5,0.3-1.2,0.4-1.8,0.1
					c-0.8-0.4-1.2-1.1-1.2-2.1c0-0.7,0.2-1.1,0.7-1.6c0.7-0.7,1.7-0.7,2.4,0c0.5,0.4,0.7,0.9,0.7,1.7C76.7,86.7,76.6,86.9,76.4,87.3
					z"/>
				<path class="st2" d="M71,88.8c-0.1-0.2-0.3-0.7-0.4-1c-0.2-0.5-3.3-8.7-3.5-9.4c-0.1-0.1-0.2-0.2-0.9-0.2c-0.6,0-0.9,0-0.9,0.1
					c0,0.1-0.1,0.4-0.2,0.7c-0.3,0.6-1.2,3.1-1.8,4.6c-0.2,0.6-0.8,2-1.2,3.3c-0.5,1.2-0.8,2.2-0.8,2.3c0,0.1,0.3,0.1,0.8,0.1l0.8,0
					l0.4-1.1c0.2-0.6,0.5-1.3,0.5-1.5l0.1-0.4h4.5l0.3,0.9c0.2,0.5,0.4,1.2,0.5,1.5l0.2,0.5h0.8c0.4,0,0.8,0,0.8,0
					C71.1,89.2,71.1,89,71,88.8z M66.2,85c-1,0-1.8,0-1.8-0.1c0-0.1,0.7-2,0.8-2.2c0-0.1,0.1-0.2,0.1-0.2c0.1-0.4,0.8-2.3,0.9-2.2
					c0,0,0.4,1,0.9,2.2c0.4,1.2,0.8,2.2,0.8,2.3C67.9,84.9,67.8,85,66.2,85z"/>
			</g>
			<g>
				<path class="st2" d="M56.5,87.1c-0.1,0-0.3,0.2-0.5,0.4c-0.6,0.5-1.3,0.7-2.1,0.5c-0.4-0.1-1.2-0.8-1-0.9c0.1,0,0.3-0.1,0.5-0.2
					c0.2-0.1,0.5-0.2,0.6-0.3c0.1,0,0.3-0.1,0.4-0.2c0.7-0.3,1.2-0.5,2.1-0.8c1.1-0.4,1.2-0.5,1.2-0.7c0-0.3-0.6-1.3-1.1-1.8
					c-0.7-0.6-1.4-1-2.3-1c-1.6,0-2.9,1-3.4,2.8c-0.1,0.4-0.1,1.6,0,2c0.5,1.5,1.4,2.4,2.9,2.8c0.3,0.1,0.6,0.1,0.7,0.1
					c0.4,0,1.5-0.3,2-0.6c0.5-0.3,1.3-1,1.3-1.2C57.8,87.8,56.6,87.1,56.5,87.1z M52.6,85.2c0.1-0.5,0.5-1,1-1.3
					c0.6-0.4,1.6-0.3,2,0.2c0.2,0.2,0.1,0.2-0.3,0.3c-0.2,0.1-0.6,0.3-0.9,0.4C54.2,84.9,54,85,53.9,85c-0.3,0.2-0.7,0.3-0.8,0.3
					c-0.1,0,0.1,0-0.3,0.1C52.5,85.6,52.5,85.6,52.6,85.2z"/>
				<polygon class="st2" points="49.3,78.3 50.2,78.3 50.2,89.4 49.3,89.4 48.4,89.4 48.4,78.3 				"/>
				<path class="st2" d="M47.5,85.9l0-3.7h-1.6l0,0.3l0,0.3l-0.2-0.2c-0.5-0.5-1.8-0.7-2.7-0.4c-1.8,0.6-3,2.5-2.6,4.3
					c0.2,0.9,0.4,1.4,1.1,2c0.6,0.6,1.1,0.9,2,1c0.7,0.1,1.6,0,2.1-0.4l0.4-0.3l0,0.2c0,0.4-0.2,1.2-0.4,1.5
					c-0.5,0.6-1.5,0.9-2.3,0.5c-0.4-0.2-1-0.8-1-1c0-0.2-0.2-0.1-0.8,0.1c-0.9,0.3-0.9,0.4-0.8,0.6c0.4,0.9,1.3,1.6,2.3,1.9
					c0.6,0.2,1.6,0.2,2.2,0c0.9-0.3,1.7-0.9,2.1-1.8C47.5,90.3,47.5,89.8,47.5,85.9z M44.4,87.9c-0.5,0.2-0.6,0.2-0.8,0
					c-0.1,0-0.3-0.1-0.4-0.1c-0.4-0.1-1-0.7-1.1-1.3c-0.2-0.7-0.2-0.7,0-1.3c0.4-1.5,2.2-2,3.3-0.9c0.4,0.4,0.5,0.9,0.5,1.5
					C45.9,86.9,45.3,87.7,44.4,87.9z"/>
				<path class="st2" d="M38.7,83.3c-1.6-1.7-4.3-1.7-5.8,0c-1.1,1.2-1.3,2.9-0.5,4.4c0.5,0.9,1.5,1.7,2.4,1.9c0.2,0,0.8,0.1,1.2,0
					c0.9,0,1.6-0.3,2.3-0.9C39.9,87.4,40,84.7,38.7,83.3z M37.7,86.7c-0.2,0.5-0.8,1-1.2,1.1c-0.7,0.2-0.8,0.2-1.2,0
					c-1.5-0.5-1.9-2.5-0.8-3.6c0.6-0.6,1.3-0.7,2.1-0.4c0.4,0.1,0.6,0.3,1.1,0.9c0.1,0.1,0.2,0.5,0.3,1.1
					C37.9,86.2,37.7,86.5,37.7,86.7z"/>
				<path class="st2" d="M27.6,82c-1.6,0-2.9,0.8-3.5,2.3c-0.3,0.7-0.4,1.9-0.2,2.6c0.5,1.5,1.5,2.4,3,2.7c0.7,0.1,0.8,0.1,1.6,0
					c0.9-0.2,2.1-1,2.5-1.8C32.4,85.1,30.6,82,27.6,82z M28.7,87.6c-0.4,0.3-1.2,0.4-1.7,0.3c-0.8-0.2-1.4-1.1-1.4-2.1
					c0-1.2,0.9-2.1,2.1-2.1c0.8,0,1.6,0.7,1.8,1.5C29.8,86.1,29.5,87.1,28.7,87.6z"/>
				<path class="st2" d="M23.4,83.7c0.2,1-0.2,2.6-0.9,3.7c-0.6,0.9-1.2,1.4-2.6,2c-0.6,0.2-2.2,0.3-3.2,0.2
					c-1.1-0.2-2.2-0.8-3.1-1.7c-0.7-0.7-1.1-1.4-1.5-2.4c-0.2-0.6-0.2-2.7,0-3.4c0.7-2,2.2-3.4,4.2-4c0.6-0.2,2.7-0.2,3.3,0
					c0.9,0.3,1.9,0.9,2.2,1.3c0.1,0.1,0.1,0.2-0.5,0.7c-0.3,0.3-0.6,0.6-0.6,0.6c0,0-0.2-0.1-0.3-0.2c-0.8-0.7-2.2-1-3.3-0.8
					c-1.3,0.2-2.3,1-2.9,2.2c-0.3,0.6-0.5,0.6-0.5,1.8c0,1.2,0.2,1.3,0.4,1.8c0.1,0.3,0.5,0.8,0.8,1.1c1,1.1,2.6,1.5,4,1.1
					c0.8-0.2,1.2-0.4,1.7-0.9c0.4-0.4,0.7-1,0.8-1.5l0.1-0.3l-1.9,0l-1.9,0v-1.7l2.7,0c1.5,0,2.7,0,2.7,0
					C23.3,83.2,23.3,83.4,23.4,83.7z"/>
			</g>
		</g>
	</g>
	<g id="Layer_1-2" class="st0">
		<g id="_273580552" class="st1">
			<g id="_273581800">
				<path class="st2" d="M54.5,4.1H21c-4.9,0-8.9,4.2-9,9.3v69.2c0,5.1,4,9.3,9,9.3h33.5c1.3,0,2.6-0.3,3.8-0.9c0,0,0,0,0,0
					c0,0,0.1,0,0.1-0.1c3.1-1.6,5-4.8,5-8.4V13.4C63.4,8.3,59.4,4.1,54.5,4.1z M27.7,55.6c0.4,0.3,0.5,1,0.2,1.4
					c-0.3,0.4-0.9,0.5-1.3,0.2l-10.7-8.4c-0.4-0.3-0.5-1-0.2-1.4c0.1-0.1,0.1-0.1,0.2-0.2l10.7-8.4c0.4-0.3,1-0.2,1.3,0.2
					c0.3,0.4,0.2,1.1-0.2,1.4l0,0L18,48L27.7,55.6z M37.7,87.7c-3.6,0-6.5-3-6.5-6.8s2.9-6.8,6.5-6.8c3.6,0,6.5,3,6.5,6.8l0,0
					C44.2,84.6,41.3,87.7,37.7,87.7L37.7,87.7z M33.1,39.5c0.5-0.3,1-0.1,1.3,0.4l8.4,15c0.3,0.5,0.1,1.1-0.3,1.4s-1,0.1-1.3-0.4
					c0,0,0,0,0,0l-8.4-15C32.4,40.3,32.6,39.7,33.1,39.5z M44.4,10.3H31c-0.5,0-1-0.4-1-1s0.4-1,1-1h13.4c0.5,0,1,0.4,1,1
					S44.9,10.3,44.4,10.3L44.4,10.3z M59.6,48.8l-10.7,8.4c-0.4,0.3-1,0.2-1.3-0.2c-0.3-0.4-0.2-1.1,0.2-1.4l0,0l9.7-7.6l-9.7-7.6
					c-0.4-0.3-0.5-1-0.2-1.4c0.3-0.4,0.9-0.5,1.3-0.2l10.7,8.4c0.4,0.3,0.5,1,0.2,1.4C59.7,48.7,59.6,48.7,59.6,48.8L59.6,48.8z"/>
			</g>
			<g id="_273581224">
				<path class="st3" d="M71.5,69.6c0,3.5-2.6,6.5-6,7v-14C68.9,63.1,71.5,66.1,71.5,69.6z"/>
				<path class="st2" d="M86,76.4c0.1,0.2,0,0.5-0.1,0.7l-4.2,7.3c-0.2,0.4-0.8,0.6-1.2,0.3l-4.3-2.5c-0.4-0.2-0.8-0.2-1.1,0.1
					c-1.5,1.2-3.1,2.2-4.9,2.8c-0.4,0.1-0.7,0.5-0.7,0.9V91c0,0.5-0.4,0.9-0.9,0.9l0,0h-8.1c3.1-2.1,4.9-5.6,4.9-9.3v-4.1
					c5-0.6,8.5-5,8-10c-0.5-4.2-3.8-7.5-8-8V47.2h3.2c0.5,0,0.9,0.4,0.9,0.9l0,0V53c0,0.4,0.3,0.8,0.7,0.9c1.8,0.7,3.5,1.6,4.9,2.8
					c0.3,0.3,0.8,0.3,1.1,0.1l4.3-2.5c0.4-0.2,0.9-0.1,1.2,0.3l4.2,7.3c0.2,0.4,0.1,0.9-0.3,1.2c0,0,0,0,0,0l-4.3,2.5
					c-0.4,0.2-0.6,0.6-0.5,1c0.2,0.9,0.2,1.9,0.2,2.8c0,1-0.1,1.9-0.2,2.8c-0.1,0.4,0.1,0.8,0.5,1l4.3,2.5
					C85.8,76,85.9,76.2,86,76.4z"/>
			</g>
			<g id="_273580936">
				<path class="st3" d="M42,80.9c0,2.6-2,4.8-4.5,4.8c-2.5,0-4.5-2.1-4.5-4.8s2-4.8,4.5-4.8l0,0C40,76.1,42,78.3,42,80.9z"/>
			</g>
		</g>
	</g>
	<circle class="st2" cx="-67.5" cy="18.5" r="11.5"/>
	<circle class="st3" cx="-67.5" cy="49.5" r="11.5"/>
	<g>
		<path class="st2" d="M73.7,62h3.1v-9.6c2.7-0.7,4.7-3.1,4.7-6c0-2.9-2-5.3-4.7-6v-9.6h-3.1c0,3.4-12.5,7.8-26.5,7.8h-9.4
			c-2.6,0-4.7,2.1-4.7,4.7v6.2c0,2.2,1.5,4,3.5,4.5l2.8,8.5c0.2,0.6,0.8,1.1,1.5,1.1h6.2c0.5,0,1-0.2,1.3-0.6
			c0.3-0.4,0.4-0.9,0.2-1.4l-2.4-7.3h1C61.2,54.2,73.7,58.6,73.7,62z M36.3,43.3c0-0.9,0.7-1.6,1.6-1.6h7.8v9.4h-1.6h-6.2
			c-0.9,0-1.6-0.7-1.6-1.6V43.3z M45.1,60.5h-3L40,54.2h3L45.1,60.5z M78.4,46.4c0,1.1-0.6,2.1-1.6,2.7v-5.4
			C77.8,44.3,78.4,45.3,78.4,46.4z M73.7,35.8v21.3c-5.3-3.8-16.3-5.7-24.9-5.9v-9.4C57.5,41.5,68.4,39.6,73.7,35.8z"/>
		<rect x="64.4" y="44.9" class="st3" width="3.1" height="3.1"/>
		<rect x="58.1" y="44.9" class="st3" width="3.1" height="3.1"/>
		<rect x="51.9" y="44.9" class="st3" width="3.1" height="3.1"/>
		<rect x="87.8" y="44.9" class="st3" width="6.2" height="3.1"/>
		
			<rect x="84.3" y="55.5" transform="matrix(0.7071 -0.7071 0.7071 0.7071 -16.2677 77.865)" class="st3" width="3.1" height="6.2"/>
		<rect x="82.7" y="32.8" transform="matrix(0.7071 -0.7071 0.7071 0.7071 0.8849 70.7602)" class="st3" width="6.2" height="3.1"/>
		<path class="st2" d="M17.6,34v45.2v3.1V87c0,4.3,3.5,7.8,7.8,7.8h37.4c4.3,0,7.8-3.5,7.8-7.8v-4.7v-3.1V62h-3.1v17.2H20.7V33.7
			c7.1-1.4,12.5-7.7,12.5-15.3c0-0.5,0-1-0.1-1.6h34.4v14h3.1V9c0-4.3-3.5-7.8-7.8-7.8H25.4c-1.8,0-3.6,0.7-5,1.8
			c-0.9-0.2-1.9-0.3-2.8-0.3C9,2.8,2,9.8,2,18.4S9,34,17.6,34z M67.5,82.3V87c0,2.6-2.1,4.7-4.7,4.7H25.4c-2.6,0-4.7-2.1-4.7-4.7
			v-4.7H67.5z M25.4,4.3h37.4c2.6,0,4.7,2.1,4.7,4.7v4.7h-35c-1.3-4.1-4.2-7.4-7.9-9.3C24.8,4.4,25.1,4.3,25.4,4.3z M17.6,5.9
			c6.9,0,12.5,5.6,12.5,12.5s-5.6,12.5-12.5,12.5S5.1,25.3,5.1,18.4S10.7,5.9,17.6,5.9z"/>
		<path class="st3" d="M11.4,25.9l3.1,0.6l0.7-3.4h3.1l-0.6,2.8l3.1,0.6l0.7-3.4h4v-3.1H22l0.6-3.1h2.8v-3.1h-2.2l0.6-2.8l-3.1-0.6
			l-0.7,3.4H17l0.6-2.8l-3.1-0.6l-0.7,3.4h-4v3.1h3.4l-0.6,3.1H9.8v3.1h2.2L11.4,25.9z M16.4,16.8h3.1l-0.6,3.1h-3.1L16.4,16.8z"/>
		<rect x="42.5" y="7.5" class="st3" width="3.1" height="3.1"/>
		<rect x="41" y="85.4" class="st3" width="6.2" height="3.1"/>
		<rect x="42.5" y="72.9" class="st3" width="3.1" height="3.1"/>
		<rect x="48.8" y="72.9" class="st3" width="3.1" height="3.1"/>
		<rect x="36.3" y="72.9" class="st3" width="3.1" height="3.1"/>
	</g>
</g>
</svg>
